<?xml version="1.0" encoding="utf-8"?>
<!-- Generator: Adobe Illustrator 24.1.0, SVG Export Plug-In . SVG Version: 6.00 Build 0)  -->
<svg version="1.1" id="layer" xmlns="http://www.w3.org/2000/svg" xmlns:xlink="http://www.w3.org/1999/xlink" x="0px" y="0px"
	 viewBox="0 0 495.7 307.3" style="enable-background:new 0 0 495.7 307.3;" xml:space="preserve">
<style type="text/css">
	.st0{fill:#DF134C;}
	.st1{fill:#231F20;}
</style>
<g>
	<path fill="#DF134C" d="M489.6,11.4l-3.1,9.9l-15.9,56.3h-45c-16.4,0.2-32.4,12.3-38.8,27.9l1.9-7l16.9-58.4c6.2-16,21-27.1,38.1-28.7
		C443.7,11.4,489.6,11.4,489.6,11.4z"/>
	<path fill="#231F20" d="M374.5,54.1c3,3.2,4.4,7.6,3.8,11.9l-7,25.2L344.8,91c1.5-6,3.4-11.6,4.6-17.9c0.1-1.1-0.1-2.1-0.6-3
		c-4.9-4.6-11.9-6.2-18.4-4.1c-8.6,1.7-15.3,10.2-19.1,17.9l-3,7.2l-15.9,55.6c-1.6,5.3-4,11.9-0.1,16.9c6.5,7.9,18.2,7.8,27,5.3
		c2.4-0.9,5.5-1.4,6.8-3.5c2.4-8.8,5.3-17.7,7.5-26.5l-0.6-0.3h-19.1l6.5-23.5l0.5-0.4c-0.1-0.2-0.3-0.2-0.3-0.5
		c14.2-0.2,29.1,0,43.8,0l-0.3,2L343.6,187c-21.2,5.6-48.1,10.2-68.9,0.6c-11.5-7.3-13.9-21.3-11.8-34l1.8-7l17.8-60.7
		c5.3-16.5,15.1-34.4,32.4-39.7c16.4-3.8,33.5-3.4,49.6,1.4c3.8,1.4,7.3,3.7,10.1,6.7L374.5,54.1z"/>
	<path fill="#231F20" d="M152.9,77.4c3.2,3.4,4.4,8.2,3.1,12.7l-7.2,24.6c-9.2,0.5-17.9-0.2-26.8,0c1.3-5.3,3.1-10.4,4.4-15.9
		c0.1-3.4-1.7-6.6-4.6-8.2c-5.7-2.5-12.4-1.5-17,2.6c-6.1,5-9.6,12.6-9.3,20.6c0.2,2.9,1.4,5.7,3.4,7.8c8.7,8.2,18.1,15.7,27.1,23.8
		c5.4,5.9,7.7,14,6.2,21.8c-1.9,18-11.8,36.4-28.9,44.1c-15.9,7.2-36.7,9.7-53.2,2.3c-8.5-4.8-13.3-14.2-12.1-23.8
		c1.6-8.2,4.6-15.9,6.5-23.8c8.1-0.2,18.1,0,27.1,0c-1,7.9-8.7,18.8,0.3,25.3c5.5,4.1,13.2,1.5,18.5-1.5c6.4-5,10.8-12.3,12.2-20.3
		c0.9-8.2-7.9-11-12.3-16.3c-9.3-9.9-24.9-16.5-25.5-31.8c0.2-14.9,5.5-29.2,15-40.7c16-16.4,43.4-17.8,63.4-9.7
		c3.6,1.4,6.9,3.6,9.6,6.4H152.9z"/>
	<path fill="#231F20" d="M228.9,69.8c10.6,0.9,21.8,4.3,26.8,15.1c4.9,9.9,2.2,22.1-0.5,32.3l-21.8,74.2c-5.1,13.4-17.8,22.3-32.1,22.6
		h-62.9l0.5-1.8l17.6-60.9l23.7-81.6L228.9,69.8L228.9,69.8z M202.1,93.1l-0.3,0.4L174,188.9l0.3,0.5c8.2,0.1,16.1,0.5,24.9,0
		c2.9-0.7,5.6-2.4,7.5-4.7c4-6.7,5-14.3,7.4-21.7l15.3-51.9c0.9-3.3,2.5-7.2,1-10.6c-1.3-3.5-4.3-6-7.9-6.9L202.1,93.1L202.1,93.1z"
		/>
	<path fill="#231F20" d="M456.4,114.2c-1.9,7.9-4.4,15.9-6.8,24.1c-14.5,0.2-28.4,0.3-42.4,0.2c-3.5,11.1-6.8,22.3-9.9,33.6l0.6,0.3
		h39.5l0.2,0.3c-2.5,8.4-4.9,17.1-7.5,25.6l-40.2,0.1c-4.2,12.8-7.7,25.3-11.3,38.1l0.1,0.3c15,0.3,29.8,0,44.9,0.3l-7,24.7
		l-5.5,0.3h-69l0.5-2.9l21.9-75.8l19.7-69.1l0.3-0.2L456.4,114.2L456.4,114.2z"/>
	<path fill="#DF134C" d="M320.7,267c-5.8,14.6-20.1,26.7-35.5,28.4l-9,0.6L6,295.8l19.5-65.7c12.9-0.5,274,0,274,0
		c17-0.3,33.5-12.7,39.7-29L320.7,267L320.7,267z"/>
</g>
</svg>
