<svg width="12" height="6" viewBox="0 0 12 6" fill="none" xmlns="http://www.w3.org/2000/svg">
  <path fill-rule="evenodd" clip-rule="evenodd" d="M3 1C2.46957 1 1.96086 1.21071 1.58579 1.58579C1.21071 1.96086 1 2.46957 1 3C1 3.53043 1.21071 4.03914 1.58579 4.41421C1.7715 4.59993 1.99198 4.74725 2.23463 4.84776C2.47728 4.94827 2.73736 5 3 5H4.5C4.77614 5 5 5.22386 5 5.5C5 5.77614 4.77614 6 4.5 6H3C2.60603 6 2.21593 5.9224 1.85195 5.77164C1.48797 5.62087 1.15726 5.3999 0.87868 5.12132C0.31607 4.55871 0 3.79565 0 3C0 2.20435 0.31607 1.44129 0.87868 0.87868C1.44129 0.31607 2.20435 0 3 0H4.5C4.77614 0 5 0.223858 5 0.5C5 0.776142 4.77614 1 4.5 1H3ZM7 0.5C7 0.223858 7.22386 0 7.5 0H9C9.39397 0 9.78407 0.0775973 10.1481 0.228361C10.512 0.379126 10.8427 0.600104 11.1213 0.87868C11.3999 1.15726 11.6209 1.48797 11.7716 1.85195C11.9224 2.21593 12 2.60603 12 3C12 3.39397 11.9224 3.78407 11.7716 4.14805C11.6209 4.51203 11.3999 4.84274 11.1213 5.12132C10.8427 5.3999 10.512 5.62087 10.1481 5.77164C9.78407 5.9224 9.39397 6 9 6H7.5C7.22386 6 7 5.77614 7 5.5C7 5.22386 7.22386 5 7.5 5H9C9.26264 5 9.52272 4.94827 9.76537 4.84776C10.008 4.74725 10.2285 4.59993 10.4142 4.41421C10.5999 4.2285 10.7472 4.00802 10.8478 3.76537C10.9483 3.52272 11 3.26264 11 3C11 2.73736 10.9483 2.47728 10.8478 2.23463C10.7472 1.99198 10.5999 1.7715 10.4142 1.58579C10.2285 1.40007 10.008 1.25275 9.76537 1.15224C9.52272 1.05173 9.26264 1 9 1H7.5C7.22386 1 7 0.776142 7 0.5Z"/>
  <path fill-rule="evenodd" clip-rule="evenodd" d="M3.5 3C3.5 2.72386 3.72386 2.5 4 2.5H8C8.27614 2.5 8.5 2.72386 8.5 3C8.5 3.27614 8.27614 3.5 8 3.5H4C3.72386 3.5 3.5 3.27614 3.5 3Z"/>
</svg>
